PathFileType   4   (X/Y/Z)																																																																																																																							
DataRate	CameraRate	NumFrames	NumMarkers	Units	OrigDataRate	OrigDataStartFrame	OrigNumFrames																																																																																																																
120	120	5	37	mm	120	1	136																																																																																																																
Frame#	Time	Sternum	R.Acromium	L.Acromium	Top.Head	R.ASIS	L.ASIS	V.Sacral	R.Thigh.Upper	R.Thigh.Front	R.Thigh.Rear	R.Knee.Lat	R.Knee.Med	R.Shank.Upper	R.Shank.Front	R.Shank.Rear	R.Ankle.Lat	R.Ankle.Med	R.Heel	R.Midfoot.Sup	R.Midfoot.Lat	R.Toe.Lat	R.Toe.Med	R.Toe.Tip	L.Thigh.Upper	L.Thigh.Front	L.Thigh.Rear	L.Knee.Lat	L.Knee.Med	L.Shank.Upper	L.Shank.Front	L.Shank.Rear	L.Ankle.Lat	L.Ankle.Med	L.Heel	L.Midfoot.Sup	L.Midfoot.Lat	L.Toe.Lat	L.Toe.Med	L.Toe.Tip																																																																															
 	 	X1	Y1	Z1	X2	Y2	Z2	X3	Y3	Z3	X4	Y4	Z4	X5	Y5	Z5	X6	Y6	Z6	X7	Y7	Z7	X8	Y8	Z8	X9	Y9	Z9	X10	Y10	Z10	X11	Y11	Z11	X12	Y12	Z12	X13	Y13	Z13	X14	Y14	Z14	X15	Y15	Z15	X16	Y16	Z16	X17	Y17	Z17	X18	Y18	Z18	X19	Y19	Z19	X20	Y20	Z20	X21	Y21	Z21	X22	Y22	Z22	X23	Y23	Z23	X24	Y24	Z24	X25	Y25	Z25	X26	Y26	Z26	X27	Y27	Z27	X28	Y28	Z28	X29	Y29	Z29	X30	Y30	Z30	X31	Y31	Z31	X32	Y32	Z32	X33	Y33	Z33	X34	Y34	Z34	X35	Y35	Z35	X36	Y36	Z36	X37	Y37	Z37	X38	Y38	Z38	X39	Y39	Z39	
																																																																																																																							
	1	0.23333	1511.403243	-0.001000353	1253.15464	1444.113488	-161.6639114	1327.167337	1446.797092	164.9109026	1326.588284	1572.466951	-10.07056321	1538.361669	1500.443527	-126.4287728	883.5296306	1505.809287	128.1563878	875.0777543	1311.98828	-6.022778891	903.4674757	1438.27552	-163.1570236	586.1162758	1488.420137	-74.72940176	526.3059788	1422.284844	-154.4047096	474.6405989	1381.159928	-137.316947	397.4254524	1378.676785	-24.75841468	382.0548101	1326.744986	-149.3438724	398.5291231	1348.427252	-96.85682453	321.6988854	1274.640176	-158.2831336	333.214557	1067.992404	-134.0955655	151.5428965	1083.482371	-48.0330811	155.0251474	1026.533993	-83.91925551	203.1140579	1086.010586	-49.92190453	77.97974212	1066.42654	-153.2800315	75.92964879	1075.59726	-162.0397613	-12.89623764	1088.162477	-57.59368751	-10.5050383	1109.51315	-88.18151523	-65.17960255	1466.148931	167.6781368	608.0550942	1544.156147	97.4394069	581.9131392	1473.730472	153.3828701	507.0204453	1469.291126	138.945524	384.0149813	1470.304223	31.06670304	384.853013	1467.190625	156.0706667	360.5524288	1512.826717	102.6419486	315.2928334	1453.328197	166.4841022	317.9661245	1489.525313	133.6260322	17.16575099	1491.960841	45.5255286	39.83257558	1417.102726	81.19863714	0.917353942	1583.091491	55.77109965	4.468055248	1565.38275	150.766436	4.356821048	1626.453819	160.8566492	-17.64779844	1642.868943	62.45973316	-17.5641802	1690.251253	86.83216932	-16.46712772
	2	0.24167	1518.452218	-0.001000353	1252.705501	1451.211839	-161.6639114	1326.76306	1453.895057	164.9109026	1326.182217	1579.706126	-10.07056321	1537.871741	1507.182445	-126.4287728	882.9526023	1512.532692	128.1563878	874.4908972	1318.76409	-6.022778891	903.2361176	1449.788287	-163.1570236	586.6630665	1501.353695	-74.72940176	528.0732808	1436.477227	-154.4047096	474.8357713	1397.217036	-137.316947	396.6560106	1395.103449	-24.75841468	381.230208	1342.161484	-149.3438724	398.3164685	1362.602681	-96.85682453	321.1467622	1289.010784	-158.2831336	333.8501454	1079.461897	-134.0955655	155.5325697	1095.005975	-48.0330811	158.7647205	1038.100672	-83.91925551	207.1654304	1097.241111	-49.92190453	81.87189256	1077.651631	-153.2800315	79.87438264	1086.583853	-162.0397613	-8.975803732	1099.155445	-57.59368751	-6.618346028	1120.359259	-88.18151523	-61.35003202	1470.466171	167.6781368	606.8845195	1548.148606	97.4394069	579.7926961	1476.814361	153.3828701	505.7648848	1470.874479	138.945524	382.8227449	1471.897727	31.06670304	383.6483528	1468.916905	156.0706667	359.4636086	1514.320962	102.6419486	313.9712417	1454.836891	166.4841022	316.9487475	1489.49537	133.6260322	15.96721038	1492.046775	45.5255286	38.62128437	1417.070572	81.19863714	-0.294053653	1583.057707	55.77109965	3.332031104	1565.349019	150.766436	3.212754488	1626.430076	160.8566492	-18.7641273	1642.845159	62.45973316	-18.67305414	1690.226967	86.83216932	-17.55448309
	3	0.25	1525.482558	-0.001000353	1252.259235	1458.292015	-161.6639114	1326.362012	1460.974842	164.9109026	1325.779364	1586.928293	-10.07056321	1537.384203	1513.899431	-126.4287728	882.3771072	1519.23397	128.1563878	873.905491	1325.519029	-6.022778891	903.0101335	1461.257946	-163.1570236	587.3330504	1514.215683	-74.72940176	529.9986594	1450.636583	-154.4047096	475.2183104	1413.265432	-137.316947	396.1181547	1411.52295	-24.75841468	380.646038	1357.599308	-149.3438724	398.2931039	1376.845005	-96.85682453	320.8165964	1303.4583	-158.2831336	334.6562038	1091.177639	-134.0955655	159.5995992	1106.769828	-48.0330811	162.5910498	1049.843495	-83.91925551	211.2383352	1108.811022	-49.92190453	85.86332623	1089.218805	-153.2800315	83.89284393	1098.028441	-162.0397613	-4.969580816	1110.603273	-57.59368751	-2.629469177	1131.731559	-88.18151523	-57.39035596	1474.762391	167.6781368	605.7492157	1552.110251	97.4394069	577.7164466	1479.882681	153.3828701	504.5599738	1472.450914	138.945524	381.6989923	1473.484108	31.06670304	382.5121187	1470.635836	156.0706667	358.4386552	1515.805747	102.6419486	312.7137928	1456.337745	166.4841022	315.9966383	1489.450591	133.6260322	14.841138	1492.118263	45.5255286	37.48181508	1417.023199	81.19863714	-1.430714276	1583.008787	55.77109965	2.265548349	1565.30015	150.766436	2.138784635	1626.390493	160.8566492	-19.81227055	1642.805536	62.45973316	-19.71425721	1690.186867	86.83216932	-18.57565357
	4	0.25833	1532.476825	-0.001000353	1251.819468	1465.337168	-161.6639114	1325.968353	1468.019594	164.9109026	1325.383863	1594.118278	-10.07056321	1536.902188	1520.573828	-126.4287728	881.8063168	1525.892358	128.1563878	873.3246404	1332.232732	-6.022778891	902.7951003	1472.662606	-163.1570236	588.1311026	1526.984105	-74.72940176	532.0871098	1464.74105	-154.4047096	475.7933208	1429.283333	-137.316947	395.8171499	1427.913511	-24.75841468	380.3075972	1373.041802	-149.3438724	398.434584	1391.187609	-96.85682453	320.6931165	1318.004402	-158.2831336	335.5713332	1103.264245	-134.0955655	163.5406414	1118.897262	-48.0330811	166.310827	1061.822375	-83.91925551	215.0772049	1120.932978	-49.92190453	89.76958856	1101.343023	-153.2800315	87.77674318	1110.254089	-162.0397613	-1.075567538	1122.826241	-57.59368751	1.278896655	1144.017023	-88.18151523	-53.45783667	1479.028036	167.6781368	604.6569723	1556.033582	97.4394069	575.6971136	1482.932459	153.3828701	503.4135254	1474.025407	138.945524	380.6506794	1475.068293	31.06670304	381.4513363	1472.348409	156.0706667	357.4835317	1517.280973	102.6419486	311.5254142	1457.830765	166.4841022	315.1161122	1489.38393	133.6260322	13.79320622	1492.168788	45.5255286	36.41976792	1416.953049	81.19863714	-2.484653629	1582.937298	55.77109965	1.271232656	1565.228709	150.766436	1.138107808	1626.326933	160.8566492	-20.79100162	1642.74194	62.45973316	-20.68709182	1690.122858	86.83216932	-19.53146834
	5	0.26667	1539.42022	-0.001000353	1251.390358	1472.333374	-161.6639114	1325.587027	1475.015383	164.9109026	1325.000628	1601.264636	-10.07056321	1536.429116	1527.187206	-126.4287728	881.2461033	1532.489436	128.1563878	872.7542279	1338.886767	-6.022778891	902.5965733	1483.981039	-163.1570236	589.0627826	1539.636803	-74.72940176	534.3435881	1478.767855	-154.4047096	476.5667783	1445.246952	-137.316947	395.7596834	1444.251132	-24.75841468	380.2216338	1388.46856	-149.3438724	398.7199977	1405.656877	-96.85682453	320.7612403	1332.662187	-158.2831336	336.5383893	1115.822519	-134.0955655	167.1617311	1131.488423	-48.0330811	169.7394416	1074.083438	-83.91925551	218.4420937	1133.783645	-49.92190453	93.41430691	1114.203295	-153.2800315	91.32920554	1123.532798	-162.0397613	2.519855975	1136.093721	-57.59368751	4.933514923	1157.542103	-88.18151523	-49.70279237	1483.257092	167.6781368	603.6162337	1559.914845	97.4394069	573.7479162	1485.964179	153.3828701	502.3336996	1475.60625	138.945524	379.6847483	1476.65853	31.06670304	380.4730186	1474.058527	156.0706667	356.6042804	1518.749188	102.6419486	310.4108974	1459.318651	166.4841022	314.3136635	1489.289416	133.6260322	12.82925399	1492.193028	45.5255286	35.44088317	1416.853621	81.19863714	-3.447655832	1582.836878	55.77109965	0.351817796	1565.128324	150.766436	0.214042676	1626.232304	160.8566492	-21.6990216	1642.647284	62.45973316	-21.59080122	1690.027897	86.83216932	-20.42273555
